PathFileType	4	(X/Y/Z)	C:/Users/beibeiliu/ov580/test_trc/User2\sequence.8_training_dense_right.trc
DataRate	CameraRate	NumFrames	NumMarkers	Units	OrigDataRate	OrigDataStartFrame	OrigNumFrames
120	120	14	19	mm	120	215	343
Frame#	Time	ThumbCMC			ThumbMCP			ThumbIP			ThumbTip			IndexMCP			IndexPIP			IndexTip			MiddleMCP			MiddlePIP			MiddleTip			RingMCP			RingPIP			RingTip			PinkyMCP			PinkyPIP			PinkyTip			BackHand1			BackHand2			BackHand3	
		X0	Y0	Z0	X1	Y1	Z1	X2	Y2	Z2	X3	Y3	Z3	X4	Y4	Z4	X5	Y5	Z5	X6	Y6	Z6	X7	Y7	Z7	X8	Y8	Z8	X9	Y9	Z9	X10	Y10	Z10	X11	Y11	Z11	X12	Y12	Z12	X13	Y13	Z13	X14	Y14	Z14	X15	Y15	Z15	X16	Y16	Z16	X17	Y17	Z17	X18	Y18	Z18	
214	1.78333	201.088	2.43139	46.1722	208.198	16.5639	19.8292	212.582	30.3421	-16.4256	202.483	42.054	-37.8411	156.431	-18.1251	-27.5644	143.177	-5.07723	-53.0414	137.166	27.1664	-64.5827	127.864	-20.1189	-24.4505	109.855	-3.58785	-49.2953	106.394	31.9888	-65.3957	107.481	-12.2518	-13.7975	93.7591	5.37084	-36.2451	91.94	32.9326	-50.8471	90.7734	2.2343	10.9176	81.7747	22.3904	-12.2533	82.133	44.658	-27.1924	127.951	-26.2656	42.5364	138.68	-28.5231	75.1179	167.877	-26.8765	48.4979	
215	1.79167	197.692	-1.45542	46.7628	207.803	10.3649	17.4774	212.197	21.6699	-12.8918	204.525	30.7725	-38.8624	155.859	-31.3289	-25.2685	146.871	-21.9835	-54.8353	138.888	6.97508	-68.3121	129.994	-33.8819	-24.8946	113.87	-22.3163	-51.6311	105.137	11.5049	-70.8476	105.242	-24.252	-11.0549	96.0613	-11.3372	-39.8688	94.0772	11.5513	-56.8487	91.4872	-9.83171	7.17193	78.4759	6.27309	-13.341	77.0042	24.0804	-32.8553	129.977	-31.2201	45.8835	138.817	-29.7985	77.08	169.337	-33.1895	48.763	
216	1.8	198.499	-5.84864	48.4381	206.601	5.79038	20.9553	209.841	15.2482	-13.4951	204.662	22.5461	-39.2814	159.875	-38.8387	-22.4051	149.598	-31.6277	-52.0952	138.867	-4.29561	-69.4584	132.283	-42.2357	-19.0722	114.115	-30.7296	-53.4061	110.219	-4.61788	-75.0189	107.445	-33.7482	-12.3845	94.9842	-23.388	-35.7409	92.8759	1.93244	-60.7239	91.1627	-16.7394	8.33991	80.6187	-2.98328	-17.357	73.6952	17.7163	-36.4761	129.443	-37.9633	44.4493	134.601	-34.9351	76.9879	165.84	-35.1612	54.3888	
217	1.80833	196.418	-8.84712	50.6915	208.738	3.08626	22.8322	211.66	13.5019	-13.2468	202.853	23.2172	-33.6889	159.847	-37.9961	-23.3104	149.405	-27.1399	-53.2826	137.751	1.60742	-67.8169	126.353	-41.0901	-21.5124	111.778	-29.1712	-50.9402	103.974	1.19112	-72.8649	105.162	-32.6403	-10.758	90.8192	-19.9794	-34.3308	89.8324	2.58241	-57.3148	88.9901	-17.223	12.2039	76.7103	-2.91106	-10.53	73.1741	13.5074	-31.648	127.152	-37.2912	48.2767	134.662	-39.1514	77.2478	165.262	-38.9109	52.1438	
218	1.81667	195.466	-12.1949	52.4197	205.555	2.71158	23.2583	208.128	16.5711	-10.5376	201.715	28.399	-31.4606	153.554	-28.0459	-22.4507	142.396	-11.7119	-49.5839	129.191	18.9879	-58.8529	124.777	-31.8034	-19.4529	106.186	-13.6835	-47.0157	98.5649	18.8018	-63.4118	100.844	-23.312	-6.64022	86.2836	-9.82135	-25.2795	84.037	18.1113	-44.5357	89.4331	-13.2268	18.3137	72.6535	4.36726	2.09251	71.4246	28.0291	-20.4386	127.559	-40.4271	51.5362	138.994	-43.4895	80.1458	162.328	-41.6331	52.0043	
219	1.825	194.394	-11.8501	54.8239	207.05	5.59401	26.697	205.445	23.1921	-5.06249	197.596	39.1372	-23.2842	143.78	-13.4269	-16.5435	131.428	9.21466	-40.0022	124.091	38.302	-43.881	116.823	-15.1544	-15.1212	102.266	7.98202	-35.0852	95.9912	41.7538	-45.5857	94.2693	-8.62053	3.02183	84.3341	11.2455	-14.8778	81.8934	41.6064	-28.3464	85.0581	-1.71754	26.4794	73.456	17.8118	14.8282	67.8072	43.1151	1.755	124.41	-35.4367	53.2989	139.428	-43.2904	80.779	164.581	-38.6358	53.4877	
220	1.83333	195.6	-12.3304	53.4097	201.807	8.90887	27.7172	203.201	31.9409	1.23913	191.771	49.7731	-17.1938	139.972	1.58014	-16.6515	127.984	28.6631	-32.5355	122.817	59.702	-30.437	109.228	0.688598	-8.04779	98.7177	30.8081	-25.871	91.0902	63.6137	-25.4414	93.671	2.24008	12.6242	79.1047	28.7338	-1.01098	79.9974	60.1081	-10.0153	83.2136	8.61755	37.2776	67.1198	34.4789	29.2844	65.7943	55.9841	17.6962	119.57	-30.9724	55.7968	138.934	-42.2625	83.2939	158.039	-34.8082	47.8864	
221	1.84167	191.565	-9.53413	51.6384	202.871	12.3974	30.0209	199.91	35.5755	6.31585	188.217	56.1011	-12.662	132.276	7.86245	-13.2068	122.139	32.6298	-25.5798	119.933	66.2042	-23.6583	106.369	6.16815	-2.68238	96.5549	39.4597	-20.4181	90.798	72.9444	-17.0433	89.366	8.80935	17.6524	75.8345	37.6677	4.43924	78.5946	66.7967	-2.71122	77.3687	12.0167	47.02	67.933	36.348	36.2419	61.558	62.5778	31.8223	118.947	-30.8529	56.9996	137.614	-41.8776	82.1256	155.93	-35.4402	49.8881	
222	1.85	187.922	-9.78397	49.8561	197.744	9.8621	30.5583	196.61	35.0906	0.305317	187.667	54.3247	-12.906	130.23	5.2027	-14.8477	117.318	31.4045	-27.5816	115.595	60.6433	-25.0264	105.867	1.50073	-5.3834	93.0289	34.3521	-22.9018	89.7291	67.324	-21.0569	85.6806	7.06677	11.4248	74.1254	32.0778	1.68036	75.2402	66.3684	-4.01378	72.5172	10.9324	42.0376	62.6588	36.2055	32.2728	60.7913	58.1259	24.1477	114.118	-32.1819	56.265	132.115	-42.1408	79.1561	154.417	-34.6849	46.1662	
223	1.85833	183.154	-11.6886	51.1505	194.334	7.60938	24.0142	192.503	28.0626	1.79863	179.852	47.739	-22.1054	131.934	-5.91573	-17.7829	121.414	17.9228	-36.8531	112.916	51.6754	-31.6153	104.717	-7.57767	-13.1514	89.7551	22.3314	-29.9218	87.6758	54.5221	-29.4328	82.2892	-2.77224	5.23638	73.8862	21.6539	-9.62859	73.7165	55.0767	-14.6554	75.7212	-0.386846	36.451	60.6668	26.747	20.0023	59.028	54.5484	13.5513	115.538	-36.4682	52.8389	130.166	-45.951	78.6893	153.878	-40.5232	49.4373	
224	1.86667	184.509	-15.8108	50.5764	190.441	1.59731	22.9729	189.598	19.6444	-4.31999	179.505	35.5025	-26.1683	132.519	-21.0322	-20.9336	121.747	-0.351844	-41.8984	115.303	34.0046	-43.5593	107.495	-25.7459	-16.4917	89.0656	1.15239	-38.7899	87.8142	35.1228	-44.1817	85.8369	-19.4955	3.79263	72.6376	3.54576	-19.4745	76.1915	35.8095	-29.372	73.1068	-10.6641	25.9712	61.054	10.5607	6.63318	58.6151	34.9264	-3.70232	111.386	-40.3262	50.6915	126.846	-44.526	80.548	151.181	-44.9142	51.7989	
225	1.875	182.822	-17.7039	49.0194	192.539	-2.18132	23.1496	190.212	10.5423	-10.0494	178.277	22.2646	-32.4829	134.389	-38.4055	-20.4035	127.382	-20.7499	-49.1678	115.885	9.73567	-52.386	109.205	-41.6606	-17.9292	96.7781	-23.1537	-46.8833	89.1528	8.47966	-57.4258	85.7797	-33.3031	-4.42316	78.7967	-17.6423	-27.172	72.2009	12.1082	-40.7505	75.2124	-22.7672	16.4011	58.5342	-4.08631	-0.430785	58.5612	20.0308	-20.8232	114.521	-43.9218	48.6284	123.103	-45.1397	82.2517	153.054	-48.2465	54.7346	
226	1.88333	180.701	-18.0722	53.181	192.703	-5.92516	18.4329	192.893	5.1916	-10.8526	179.795	12.8097	-38.0682	142.398	-48.5329	-17.5487	128.006	-37.2344	-47.2533	118.588	-8.88489	-57.7696	109.504	-52.8681	-17.4278	100.24	-39.135	-49.0759	90.1001	-8.40786	-63.6583	89.9376	-44.1631	-6.48459	79.2225	-32.7587	-28.1723	76.3593	-6.98172	-48.1076	77.4772	-30.3003	17.9427	64.1285	-16.858	-7.06166	58.7098	1.1132	-26.8794	111.601	-50.3289	50.854	127.077	-45.2115	83.7228	153.521	-48.4502	55.0624	
227	1.89167	180.455	-19.8131	53.8734	194.194	-6.66258	21.7208	190.395	2.38339	-11.2384	180.027	10.2133	-32.24	138.15	-50.7558	-19.6075	128.696	-37.0089	-48.8499	119.838	-9.24879	-58.1309	110.623	-55.614	-15.8144	100.626	-42.7512	-47.1702	90.0146	-13.5885	-63.8287	90.9502	-46.808	-5.06758	80.6246	-36.0821	-29.5806	73.0342	-8.23542	-49.9733	77.2668	-32.4782	16.058	63.7075	-17.959	-8.6726	57.9999	1.0611	-26.0414	113.701	-51.0966	52.3334	127.473	-47.8414	85.6403	151.892	-50.7623	59.5578	
